<svg xmlns="http://www.w3.org/2000/svg" version="1.1" xmlns:xlink="http://www.w3.org/1999/xlink" xmlns:svgjs="http://svgjs.dev/svgjs" width="100%" height="100%" viewBox="0 0 1000 600"><rect width="1000" height="600" x="0" y="0" fill="#358597"/><g><rect width="333.3333333333333" height="333.3333333333333" y="219.90820521621612" fill="#f4a896" transform="matrix(0.6323160041619263,0,0,0.6323160041619263,0,55.56252267548243)" x="197.68601989746094"/><path d="M297.46760794934187 461.5748598855101Q279.3224495121028 461.5748598855101 250.29019601252025 459.15550542721155L250.29019601252025 459.15550542721155L251.97030327522756 414.8678779822465L265.5119678126486 414.8678779822465L269.4098166621296 441.9848092023427Q278.8184173332906 443.42970144827103 288.8654587642804 444.5049700964037Q298.9125001952702 445.61384088979054 305.43131637457464 445.61384088979054L305.43131637457464 445.61384088979054Q306.9098107657571 445.61384088979054 309.3291652240556 442.45523923590076Q311.7485196823542 439.296637582011 313.6638419618405 434.8275522632095Q315.61276638658103 430.358466944408 315.61276638658103 426.2590052234022L315.61276638658103 426.2590052234022Q315.61276638658103 416.816802406987 308.72432660948095 410.5332012444616Q301.80228468712676 404.2159979366821 287.5549750993687 396.25228951144936L287.5549750993687 396.25228951144936Q276.16384785821305 389.6998711868908 269.1409995000964 384.62594725351465Q262.151753287234 379.5520233201386 257.1786357896203 371.8235299116849Q252.20551829200662 364.061434357977 252.20551829200662 353.9135864912248L252.20551829200662 353.9135864912248Q252.20551829200662 347.1259531498872 253.41519552115588 341.3127820209199L253.41519552115588 341.3127820209199Q256.3385821582666 336.0036430707648 264.3022905834993 328.9807947126481Q272.2996011539862 321.95794635453154 280.7673417580311 316.7832159853929Q289.235082362076 311.57488347100025 293.3345440830819 311.57488347100025L293.3345440830819 311.57488347100025Q295.28346850782236 311.57488347100025 321.8963675491064 314.2294529460778L321.8963675491064 314.2294529460778Q324.786152040963 314.4646679628568 327.94475369485275 314.6998829796359Q331.1033553487425 314.96870014166905 334.2283548573781 315.4391301752271L334.2283548573781 315.4391301752271L332.5482475946708 357.3074031618936L319.00658305724977 357.3074031618936L315.37755136980195 332.609826400096Q307.61545581609414 331.16493415416767 297.0979843515463 329.8208483440018Q286.58051288699846 328.51036467909006 281.2377717915891 328.51036467909006L281.2377717915891 328.51036467909006Q278.11277228295353 328.51036467909006 275.928632841434 332.7442349811125Q273.7444933999145 336.978105283135 273.7444933999145 345.9162759207379L273.7444933999145 345.9162759207379Q273.7444933999145 355.59369375393214 280.53212674125206 362.1461120784907Q287.28615793733553 368.6649282577951 300.5926074579775 376.1582066494698L300.5926074579775 376.1582066494698Q313.6638419618405 383.65148504114444 320.8210989009737 388.6246025387581Q327.94475369485275 393.5977200363718 333.2538926450079 401.3262134448255Q338.5966337404172 409.0547068532792 338.5966337404172 419.94180191562265L338.5966337404172 419.94180191562265Q338.5966337404172 425.990188061369 337.1517414944889 431.8033591903363L337.1517414944889 431.8033591903363Q334.2283548573781 437.85174533608273 326.49986144892443 444.8745936941993Q318.7377658952166 451.89744205231597 310.4044338721883 456.736150968913Q302.07110184915996 461.5748598855101 297.46760794934187 461.5748598855101L297.46760794934187 461.5748598855101ZM343.90577269057235 459.3907204439906L343.90577269057235 450.18373264435445L358.9259316191758 445.34502372775734L396.4259257228033 385.3651944491059L361.0764689154412 327.53590246671985L348.27405157361136 322.69719355012273L348.27405157361136 313.4902057504866L403.68398909769894 313.4902057504866L403.68398909769894 323.90687077927197L386.2444757107969 328.7455796958691L412.38694471852284 369.6393904701654L413.36140693089305 369.6393904701654L435.606027089138 328.7455796958691L418.90576089782724 323.90687077927197L418.90576089782724 313.4902057504866L472.36677399717433 313.4902057504866L472.36677399717433 322.69719355012273L457.38021721382495 327.53590246671985L424.7189320267946 382.2065927952161L463.4286033595713 445.34502372775734L478.4151601429207 450.18373264435445L478.4151601429207 459.3907204439906L420.6194703057887 459.3907204439906L420.6194703057887 448.9740554152052L436.8157043182873 444.1353464986081L409.22834306463307 397.9323967741567L408.2538808522628 397.9323967741567L380.7001217438627 444.1353464986081L397.3667857899194 448.9740554152052L397.3667857899194 459.3907204439906L343.90577269057235 459.3907204439906Z " fill="#358597" transform="matrix(0.6323160041619263,0,0,0.6323160041619263,0,55.56252267548243)"/><path d="M649.7238593132968 430.3857552151935Q636.1195598919852 430.3857552151935 614.3526808178867 428.5718486256853L614.3526808178867 428.5718486256853L615.6123381717118 395.3672807788544L625.7651764435425 395.3672807788544L628.6875815044168 415.6981504695923Q635.7416626858376 416.7814557938819 643.2744136617121 417.58763650033Q650.8071646375864 418.4190103538546 655.694635170428 418.4190103538546L655.694635170428 418.4190103538546Q656.8031336417941 418.4190103538546 658.6170402313023 416.05085452866336Q660.4309468208105 413.68269870347206 661.8669562041712 410.3320101422972Q663.3281587346085 406.98132158112224 663.3281587346085 403.9077576377889L663.3281587346085 403.9077576377889Q663.3281587346085 396.8284833092916 658.1635635839252 392.1173648059856Q652.9737752861656 387.381053155603 642.2918809257285 381.4102772984718L642.2918809257285 381.4102772984718Q633.751404066794 376.4976136185537 628.4860363278049 372.6934484100018Q623.2458617358923 368.8892832014498 619.5172759685697 363.09485937385415Q615.7886902012474 357.275242399182 615.7886902012474 349.6669119820781L615.7886902012474 349.6669119820781Q615.7886902012474 344.5778962726245 616.6956434960014 340.2194818283895L616.6956434960014 340.2194818283895Q618.8874472916572 336.23896459030203 624.8582231487884 330.9735968513129Q630.8541921529961 325.7082291123238 637.2028652162749 321.82848446254235Q643.5515382795536 317.9235466656844 646.6251022228869 317.9235466656844L646.6251022228869 317.9235466656844Q648.0863047533242 317.9235466656844 668.0392772379143 319.9138052847281L668.0392772379143 319.9138052847281Q670.2058878864937 320.09015731426365 672.5740437116849 320.26650934379916Q674.9421995368762 320.46805452041116 677.285162214991 320.82075857948223L677.285162214991 320.82075857948223L676.0255048611659 352.2114198368049L665.8726665893352 352.2114198368049L663.1518067050729 333.6944567355752Q657.3321897304006 332.6111514112856 649.4467346954552 331.6034255282255Q641.5612796605099 330.6208927922419 637.5555692753459 330.6208927922419L637.5555692753459 330.6208927922419Q635.2126065972311 330.6208927922419 633.5750520372584 333.79522932388124Q631.9374974772857 336.9695658555206 631.9374974772857 343.67094297787037L631.9374974772857 343.67094297787037Q631.9374974772857 350.92656933590325 637.0265131867393 355.8392330158213Q642.0903357491164 360.7267035486629 652.0668219914116 366.34477534672305L652.0668219914116 366.34477534672305Q661.8669562041712 371.9628471447832 667.2330965314663 375.69143291210565Q672.5740437116849 379.4200186794281 676.5545609497724 385.21444250702376Q680.5602713349364 391.0088663346194 680.5602713349364 399.17144598740634L680.5602713349364 399.17144598740634Q680.5602713349364 403.7062124611769 679.4769660106467 408.0646269054119L679.4769660106467 408.0646269054119Q677.285162214991 412.59939337918246 671.4907383873954 417.86476111817154Q665.6711214127231 423.1301288571607 659.4232209377504 426.7579420361771Q653.1753204627777 430.3857552151935 649.7238593132968 430.3857552151935L649.7238593132968 430.3857552151935ZM712.3036366513301 430.3857552151935Q710.3133780322863 430.3857552151935 707.038268912341 427.74047477216067Q703.7631597923955 425.12038747620437 701.3194245259748 421.66892632672347Q698.8756892595541 418.21746517724256 698.8756892595541 416.2272065581989L698.8756892595541 416.2272065581989L698.8756892595541 357.0988903696465L687.2616484572861 357.0988903696465L687.2616484572861 351.65717060112183L698.8756892595541 345.86274677352617L709.0285275313847 333.5181047060397Q710.6660820913573 333.5181047060397 715.3772005946635 336.0626125607665L715.3772005946635 336.0626125607665L715.3772005946635 347.47510818642235L732.987210401139 347.47510818642235L732.987210401139 358.0058436644006L715.3772005946635 358.0058436644006L715.3772005946635 408.2409789349474Q715.3772005946635 413.88424388008406 716.2841538894176 415.8745024991278Q717.1911071841716 417.86476111817154 719.7356150388985 417.86476111817154L719.7356150388985 417.86476111817154L734.5995718140352 418.21746517724256L734.5995718140352 426.9342940657126Q729.3593972221227 428.0175993900022 721.7258736579422 429.2016773025979Q714.1175432408384 430.3857552151935 712.3036366513301 430.3857552151935L712.3036366513301 430.3857552151935ZM781.7611431412487 430.3857552151935Q762.9166691280245 430.3857552151935 753.4692389743359 420.7619730319694Q744.0470019677238 411.16338399582173 744.0470019677238 390.83251430508386L744.0470019677238 390.83251430508386Q744.0470019677238 382.49358262276144 745.2310798803194 374.960831646887Q746.3899646458385 367.42808067101265 748.4054164119589 363.80026749199624L748.4054164119589 363.80026749199624Q750.219323001467 361.0794076077339 755.9129742407567 356.5446411339634Q761.6318186271228 352.00987466019285 767.4514356017951 348.5836066577885Q773.2458594293907 345.1321455083076 775.4124700779699 345.1321455083076L775.4124700779699 345.1321455083076Q793.753081149664 345.1321455083076 803.0745455679702 355.0078591622967Q812.4212031333528 364.9087659633624 812.4212031333528 383.57688794705103L812.4212031333528 383.57688794705103Q812.4212031333528 392.2937168355211 811.2371252207571 399.902047252625Q810.078240455238 407.5355708168053 808.4406858952652 412.4230413496469L808.4406858952652 412.4230413496469Q805.5434739814675 416.4035585877344 795.2898631213308 423.40725347500216Q785.036252261194 430.3857552151935 781.7611431412487 430.3857552151935L781.7611431412487 430.3857552151935ZM782.6680964360028 420.0313717667508Q783.9529469369045 419.6786677076798 791.9391745601558 415.4966052929803L791.9391745601558 415.4966052929803Q795.0127385034892 401.8923058716687 795.0127385034892 385.94504377224234L795.0127385034892 385.94504377224234Q795.0127385034892 371.78649511524765 789.8481433528061 363.80026749199624Q784.6835482021231 355.8392330158213 774.5055167832159 355.8392330158213L774.5055167832159 355.8392330158213Q769.9707503094453 355.8392330158213 767.249890425183 357.275242399182L767.249890425183 357.275242399182Q764.7305757175327 358.73644492961915 763.09302115756 366.8990245824061Q761.4554665975874 375.06160423519304 761.4554665975874 388.2880064503571L761.4554665975874 388.2880064503571Q761.4554665975874 406.07436828636816 767.5270150430246 413.05287002655945Q773.5985634884618 420.0313717667508 782.6680964360028 420.0313717667508L782.6680964360028 420.0313717667508ZM852.150796072998 430.3857552151935Q845.6257709801837 430.3857552151935 839.629801975976 426.12811335926455Q833.6590261188447 421.84527835625903 829.9304403515223 413.229222056095Q826.2018545842 404.613165755931 826.2018545842 391.9158196293735L826.2018545842 391.9158196293735Q826.2018545842 383.04783185844445 827.3859324967955 375.2379562647286Q828.5700104093912 367.42808067101265 830.5602690284348 363.80026749199624L830.5602690284348 363.80026749199624Q832.3741756179431 361.0794076077339 837.9166679747738 356.7461863105754Q843.4339671845279 352.3877718663404 849.0772321296646 349.112662746395Q854.6953039277247 345.86274677352617 856.8619145763039 345.86274677352617L856.8619145763039 345.86274677352617Q865.578743464774 345.86274677352617 876.8148870608943 349.2890147759305L876.8148870608943 349.2890147759305L876.2858309722877 372.5170963804663L865.2008462586264 372.5170963804663L862.6815315509762 359.9961022834443Q860.4897277553204 358.91279695915466 857.2398117824515 358.0058436644006Q853.9647026625062 357.0988903696465 851.4201948077794 357.0988903696465L851.4201948077794 357.0988903696465Q849.7826402478066 357.0988903696465 848.8756869530525 357.82949163486506L848.8756869530525 357.82949163486506Q846.3563722454022 359.8197502539088 844.995942303271 368.5365791423788Q843.63551236114 377.2282148837723 843.63551236114 389.57285695125876L843.63551236114 389.57285695125876Q843.63551236114 398.99509395787084 845.7013504214132 405.16741499161407Q847.7923816287629 411.3397360253573 850.6895935425607 414.23694793915513Q853.611998603435 417.13415985295296 856.3328584876974 417.13415985295296L856.3328584876974 417.13415985295296L876.8148870608943 417.13415985295296L876.8148870608943 424.76768341713336Q870.4662139976156 426.7579420361771 862.4044069331346 428.5718486256853Q854.3174067215772 430.3857552151935 852.150796072998 430.3857552151935L852.150796072998 430.3857552151935ZM900.3956727245011 430.3857552151935Q899.4887194297469 430.3857552151935 896.9442115750202 427.8412473604667Q894.4248968673699 425.29673950573994 894.4248968673699 424.38978621098585L894.4248968673699 424.38978621098585L894.4248968673699 323.71797049328006L887.874678627479 321.17346263855325L887.874678627479 314.4720855162035Q903.1165326087635 311.57487360240566 904.7540871687361 311.57487360240566L904.7540871687361 311.57487360240566Q905.66104046349 311.57487360240566 908.205548318217 314.1193814571324Q910.7500561729437 316.63869616478274 910.7500561729437 317.54564945953683L910.7500561729437 317.54564945953683L910.7500561729437 418.04111314770705L916.8971840596105 420.7619730319694L916.8971840596105 427.4885433013957Q902.0332272844737 430.3857552151935 900.3956727245011 430.3857552151935L900.3956727245011 430.3857552151935ZM945.9196894917418 430.3857552151935Q945.2142813735998 430.3857552151935 942.4934214893374 428.11837197830823Q939.7725616050751 425.850988741423 938.865608310321 424.56613824052135L938.865608310321 424.56613824052135L914.1763241753481 388.66590365650467L914.1763241753481 381.2339252689363L935.2377951313046 357.275242399182L927.2515675080531 356.19193707489234L927.2515675080531 347.47510818642235L950.8323531716599 346.2154508325972Q951.5629544368785 346.2154508325972 952.8226117907037 349.6669119820781Q954.0822691445288 353.118373131559 954.0822691445288 354.7307345444552L954.0822691445288 354.7307345444552L927.4279195375887 382.66993465229694L953.5532130559222 417.86476111817154L960.8088394139551 420.7619730319694L960.8088394139551 427.4885433013957Q947.3808920221791 430.3857552151935 945.9196894917418 430.3857552151935L945.9196894917418 430.3857552151935ZM959.3476368835179 428.74820065522084L959.3476368835179 421.84527835625903L970.6089736267147 418.21746517724256L998.724525764092 373.24769764568487L972.221335039611 329.8902915270233L962.6227460034634 326.2624783480069L962.6227460034634 319.35955604904507L1004.1662455326166 319.35955604904507L1004.1662455326166 327.16943164276097L991.0910021999116 330.7972448217774L1010.6912706254309 361.4573048138815L1011.4218718906495 361.4573048138815L1028.0997352552945 330.7972448217774L1015.5787411582726 327.16943164276097L1015.5787411582726 319.35955604904507L1055.6610381569885 319.35955604904507L1055.6610381569885 326.2624783480069L1044.4248945608683 329.8902915270233L1019.9371556025075 370.87954182049356L1048.9596610346389 418.21746517724256L1060.195804630759 421.84527835625903L1060.195804630759 428.74820065522084L1016.8635916591741 428.74820065522084L1016.8635916591741 420.93832506150494L1029.0066885500485 417.31051188248847L1008.3231148002396 382.66993465229694L1007.592513535021 382.66993465229694L986.9341329322887 417.31051188248847L999.4299338822341 420.93832506150494L999.4299338822341 428.74820065522084L959.3476368835179 428.74820065522084ZM1074.707057346825 461.5748712959042Q1073.8001040520708 461.5748712959042 1071.0792441678086 459.03036344117737Q1068.358384283546 456.51104873352705 1068.358384283546 455.60409543877296L1068.358384283546 455.60409543877296L1069.2653375783002 426.38004483002953L1069.2653375783002 358.0058436644006L1063.1182096916336 355.46133580967376L1063.1182096916336 348.759958687324Q1067.098726929721 347.85300539256986 1072.5404466982457 346.8452795095098Q1077.9821664667702 345.86274677352617 1079.0654717910597 345.86274677352617L1079.0654717910597 345.86274677352617Q1079.7960730562784 345.86274677352617 1082.5169329405408 348.38206148117644Q1085.2377928248031 350.92656933590325 1085.2377928248031 351.83352263065734L1085.2377928248031 351.83352263065734L1085.2377928248031 358.91279695915466L1090.6795125933277 354.7307345444552Q1102.4699054251312 345.86274677352617 1103.3768587198851 345.86274677352617L1103.3768587198851 345.86274677352617Q1110.632485077918 345.86274677352617 1117.0819307295028 350.12038862945514Q1123.5061832340111 354.37803048538416 1127.5874730604046 362.9940867855482Q1131.668762886798 371.61014308571214 1131.668762886798 384.3074892122696L1131.668762886798 384.3074892122696Q1131.668762886798 393.55337418934624 1130.4846849742025 400.9853525769146Q1129.3258002086832 408.44252411155946 1127.310348442563 412.4230413496469L1127.310348442563 412.4230413496469Q1124.4131365287653 416.6051037643464 1114.3610708452406 423.4828329162317Q1104.2838120146394 430.3857552151935 1101.008702894694 430.3857552151935L1101.008702894694 430.3857552151935Q1098.1114909808962 430.3857552151935 1084.885088765732 428.39549659614977L1084.885088765732 428.39549659614977L1084.885088765732 448.52482111027564L1092.140715123765 451.42203302407347L1092.140715123765 458.6776593821063Q1087.9586527090655 459.58461267686044 1082.6932849700763 460.49156597161453Q1077.4279172310871 461.3985192663686 1074.707057346825 461.5748712959042L1074.707057346825 461.5748712959042ZM1107.3573759579726 419.8550197372153Q1110.8088371074537 419.3259636486087 1112.5471642557322 412.0703372905759Q1114.2602982569344 404.81471093254305 1114.2602982569344 386.6756450374609L1114.2602982569344 386.6756450374609Q1114.2602982569344 377.40456691330786 1112.1692670495847 371.2574390266411Q1110.078235842235 365.0851179928979 1107.2817965167433 362.18790607910006Q1104.460164044175 359.26550101822573 1102.2935533955956 359.26550101822573L1102.2935533955956 359.26550101822573Q1100.8323508651583 359.26550101822573 1085.7920420604862 366.52112737625856L1085.7920420604862 366.52112737625856L1085.7920420604862 416.4035585877344Q1090.3268085342565 417.86476111817154 1097.5824348922895 419.04883903076717Q1104.8380612503224 420.2329169433628 1107.3573759579726 419.8550197372153L1107.3573759579726 419.8550197372153ZM1157.2398071694483 430.3857552151935Q1156.3328538746946 430.3857552151935 1153.813539167044 427.8412473604667Q1151.2690313123173 425.29673950573994 1151.2690313123173 424.38978621098585L1151.2690313123173 424.38978621098585L1151.2690313123173 323.71797049328006L1144.744006219503 321.17346263855325L1144.744006219503 314.4720855162035Q1159.960667053711 311.57487360240566 1161.5982216136836 311.57487360240566L1161.5982216136836 311.57487360240566Q1162.5051749084375 311.57487360240566 1165.0496827631644 314.1193814571324Q1167.5941906178914 316.63869616478274 1167.5941906178914 317.54564945953683L1167.5941906178914 317.54564945953683L1167.5941906178914 418.04111314770705L1173.7665116516346 420.7619730319694L1173.7665116516346 427.4885433013957Q1158.8773617294212 430.3857552151935 1157.2398071694483 430.3857552151935L1157.2398071694483 430.3857552151935ZM1224.7322481873998 430.3857552151935Q1205.8625810270992 430.3857552151935 1196.440344020487 420.7619730319694Q1186.9929138667985 411.16338399582173 1186.9929138667985 390.83251430508386L1186.9929138667985 390.83251430508386Q1186.9929138667985 382.49358262276144 1188.176991779394 374.960831646887Q1189.3610696919898 367.42808067101265 1191.3513283110333 363.80026749199624L1191.3513283110333 363.80026749199624Q1193.1652349005417 361.0794076077339 1198.8840792869078 356.5446411339634Q1204.602923673274 352.00987466019285 1210.3973475008697 348.5836066577885Q1216.1917713284654 345.1321455083076 1218.383575124121 345.1321455083076L1218.383575124121 345.1321455083076Q1236.6989930487387 345.1321455083076 1246.0456506141215 355.0078591622967Q1255.392308179504 364.9087659633624 1255.392308179504 383.57688794705103L1255.392308179504 383.57688794705103Q1255.392308179504 392.2937168355211 1254.2082302669082 399.902047252625Q1253.0241523543127 407.5355708168053 1251.3865977943399 412.4230413496469L1251.3865977943399 412.4230413496469Q1248.4893858805422 416.4035585877344 1238.2357750204055 423.40725347500216Q1227.9821641602687 430.3857552151935 1224.7322481873998 430.3857552151935L1224.7322481873998 430.3857552151935ZM1225.639201482154 420.0313717667508Q1226.8988588359791 419.6786677076798 1234.8850864592305 415.4966052929803L1234.8850864592305 415.4966052929803Q1237.958650402564 401.8923058716687 1237.958650402564 385.94504377224234L1237.958650402564 385.94504377224234Q1237.958650402564 371.78649511524765 1232.7940552518808 363.80026749199624Q1227.6294601011975 355.8392330158213 1217.476621829367 355.8392330158213L1217.476621829367 355.8392330158213Q1212.9418553555965 355.8392330158213 1210.2209954713344 357.275242399182L1210.2209954713344 357.275242399182Q1207.6764876166076 358.73644492961915 1206.0389330566345 366.8990245824061Q1204.401378496662 375.06160423519304 1204.401378496662 388.2880064503571L1204.401378496662 388.2880064503571Q1204.401378496662 406.07436828636816 1210.4981200891757 413.05287002655945Q1216.569668534613 420.0313717667508 1225.639201482154 420.0313717667508L1225.639201482154 420.0313717667508ZM1280.9633524621543 430.3857552151935Q1280.0563991674005 430.3857552151935 1277.4111187243677 427.8412473604667Q1274.791031428411 425.29673950573994 1274.791031428411 424.38978621098585L1274.791031428411 424.38978621098585L1274.791031428411 357.6531396053295L1268.4423583651326 355.46133580967376L1268.4423583651326 348.759958687324Q1282.2230098159796 346.0390988030617 1283.8605643759522 346.0390988030617L1283.8605643759522 346.0390988030617Q1284.7675176707064 346.0390988030617 1287.9418542023457 348.9363107168595Q1291.1161907339851 351.83352263065734 1291.1161907339851 352.5641238958759L1291.1161907339851 352.5641238958759L1290.7634866749142 358.91279695915466Q1303.8135368605424 345.1321455083076 1304.8968421848322 345.1321455083076L1304.8968421848322 345.1321455083076Q1307.79405409863 345.1321455083076 1317.0651322227832 348.0293574221054L1317.0651322227832 348.0293574221054Q1317.5941883113899 349.2890147759305 1317.8713129292312 350.92656933590325Q1318.1484375470727 352.5641238958759 1318.1484375470727 353.6474292201656L1318.1484375470727 353.6474292201656Q1318.1484375470727 354.7307345444552 1316.057406339723 358.73644492961915Q1313.9663751323733 362.71696216770664 1313.2357738671546 363.09485937385415L1313.2357738671546 363.09485937385415Q1307.2649980100234 360.7267035486629 1303.637184831007 360.7267035486629L1303.637184831007 360.7267035486629Q1301.2690290058156 360.7267035486629 1291.2925427635207 366.52112737625856L1291.2925427635207 366.52112737625856L1291.2925427635207 417.31051188248847L1300.5384277405972 420.0313717667508L1300.5384277405972 427.4885433013957Q1282.600907022127 430.3857552151935 1280.9633524621543 430.3857552151935L1280.9633524621543 430.3857552151935ZM1353.6959680720186 430.3857552151935Q1345.8860924783025 430.3857552151935 1339.0083633264173 426.203692800494Q1332.1054410274553 422.0468235328711 1327.8477991715265 413.32999464440104Q1323.5901573155975 404.613165755931 1323.5901573155975 391.9158196293735L1323.5901573155975 391.9158196293735Q1323.5901573155975 382.84628668183245 1324.7742352281932 375.1371836764226Q1325.9331199937121 367.42808067101265 1327.9485717598325 363.80026749199624L1327.9485717598325 363.80026749199624Q1329.7624783493404 361.0794076077339 1335.4561295886303 356.5446411339634Q1341.1749739749964 352.00987466019285 1347.0701703908983 348.5836066577885Q1352.9653668068 345.1321455083076 1355.1571706024558 345.1321455083076L1355.1571706024558 345.1321455083076Q1364.9321116681388 345.1321455083076 1371.0288532606526 348.2057094516409Q1377.1004017060898 351.30446654205076 1380.4510902672646 359.9961022834443Q1383.8017788284394 368.7129311719143 1383.8017788284394 385.0380904774882L1383.8017788284394 385.0380904774882L1340.998621945461 388.66590365650467Q1340.998621945461 399.5493431935539 1343.8958338592588 405.9735956980622Q1346.7930457730565 412.4230413496469 1350.6979835699146 414.9675492043737Q1354.6029213667725 417.5120570591005 1357.878030486718 417.5120570591005L1357.878030486718 417.5120570591005L1366.393314198576 417.13415985295296L1381.2572709737126 416.6051037643464L1381.2572709737126 424.0370821519148Q1374.555893851363 426.203692800494 1365.3855883155159 428.29472400784374Q1356.2404759267451 430.3857552151935 1353.6959680720186 430.3857552151935L1353.6959680720186 430.3857552151935ZM1341.351326004532 381.2339252689363L1366.2169621690402 377.9588161489909Q1366.2169621690402 367.07537661194164 1363.3197502552425 361.53288425511096Q1360.3973451943682 356.01558504535683 1353.6959680720186 356.01558504535683L1353.6959680720186 356.01558504535683Q1349.715450833931 356.01558504535683 1346.7930457730565 357.275242399182L1346.7930457730565 357.275242399182Q1344.4500830949419 358.3585477234716 1342.9133011232752 365.6141740815045Q1341.351326004532 372.8698004395373 1341.351326004532 381.2339252689363L1341.351326004532 381.2339252689363Z " fill="#f4a896" transform="matrix(0.6323160041619263,0,0,0.6323160041619263,0,55.56252267548243)"/></g></svg>